REM DIRINDEX 1\2,1\3,1\4,1\5
REM DIRNAME cjc005,folder01,folder02,folder03,folder04
TITLE ""
FILE "P1Q_t_0192-0201.mp3" MP3
  TRACK 01 AUDIO
    TITLE "3:cjc005_1477"
    INDEX 01 00:00:00
  TRACK 02 AUDIO
    TITLE "0:"
    INDEX 01 00:01:11
  TRACK 03 AUDIO
    TITLE "4:cjc005_1478"
    INDEX 01 00:01:34
  TRACK 04 AUDIO
    TITLE "0:"
    INDEX 01 00:02:49
  TRACK 05 AUDIO
    TITLE "5:cjc005_1479"
    INDEX 01 00:02:71
  TRACK 06 AUDIO
    TITLE "0:"
    INDEX 01 00:06:35
  TRACK 07 AUDIO
    TITLE "3:cjc005_1480"
    INDEX 01 00:07:11
  TRACK 08 AUDIO
    TITLE "0:"
    INDEX 01 00:08:34
  TRACK 09 AUDIO
    TITLE "4:cjc005_1481"
    INDEX 01 00:08:62
  TRACK 10 AUDIO
    TITLE "0:"
    INDEX 01 00:10:10
  TRACK 11 AUDIO
    TITLE "5:cjc005_1482"
    INDEX 01 00:10:37
  TRACK 12 AUDIO
    TITLE "0:"
    INDEX 01 00:15:07
  TRACK 13 AUDIO
    TITLE "3:cjc005_1483"
    INDEX 01 00:15:58
  TRACK 14 AUDIO
    TITLE "0:"
    INDEX 01 00:17:14
  TRACK 15 AUDIO
    TITLE "4:cjc005_1484"
    INDEX 01 00:17:41
  TRACK 16 AUDIO
    TITLE "0:"
    INDEX 01 00:18:52
  TRACK 17 AUDIO
    TITLE "5:cjc005_1485"
    INDEX 01 00:19:01
  TRACK 18 AUDIO
    TITLE "0:"
    INDEX 01 00:24:16
  TRACK 19 AUDIO
    TITLE "3:cjc005_1486"
    INDEX 01 00:24:69
  TRACK 20 AUDIO
    TITLE "0:"
    INDEX 01 00:26:11
  TRACK 21 AUDIO
    TITLE "4:cjc005_1487"
    INDEX 01 00:26:30
  TRACK 22 AUDIO
    TITLE "0:"
    INDEX 01 00:27:49
  TRACK 23 AUDIO
    TITLE "5:cjc005_1488"
    INDEX 01 00:27:73
  TRACK 24 AUDIO
    TITLE "0:"
    INDEX 01 00:32:31
  TRACK 25 AUDIO
    TITLE "3:cjc005_1489"
    INDEX 01 00:33:11
  TRACK 26 AUDIO
    TITLE "0:"
    INDEX 01 00:34:34
  TRACK 27 AUDIO
    TITLE "4:cjc005_1490"
    INDEX 01 00:34:67
  TRACK 28 AUDIO
    TITLE "0:"
    INDEX 01 00:36:31
  TRACK 29 AUDIO
    TITLE "5:cjc005_1491"
    INDEX 01 00:36:58
  TRACK 30 AUDIO
    TITLE "0:"
    INDEX 01 00:40:44
  TRACK 31 AUDIO
    TITLE "3:cjc005_1492"
    INDEX 01 00:41:20
  TRACK 32 AUDIO
    TITLE "0:"
    INDEX 01 00:42:31
  TRACK 33 AUDIO
    TITLE "4:cjc005_1493"
    INDEX 01 00:42:57
  TRACK 34 AUDIO
    TITLE "0:"
    INDEX 01 00:44:07
  TRACK 35 AUDIO
    TITLE "5:cjc005_1494"
    INDEX 01 00:44:36
  TRACK 36 AUDIO
    TITLE "0:"
    INDEX 01 00:47:70
  TRACK 37 AUDIO
    TITLE "3:cjc005_1495"
    INDEX 01 00:48:44
  TRACK 38 AUDIO
    TITLE "0:"
    INDEX 01 00:49:65
  TRACK 39 AUDIO
    TITLE "4:cjc005_1496"
    INDEX 01 00:50:15
  TRACK 40 AUDIO
    TITLE "0:"
    INDEX 01 00:51:22
  TRACK 41 AUDIO
    TITLE "5:cjc005_1497"
    INDEX 01 00:51:44
  TRACK 42 AUDIO
    TITLE "0:"
    INDEX 01 00:56:74
  TRACK 43 AUDIO
    TITLE "3:cjc005_1498"
    INDEX 01 00:57:48
  TRACK 44 AUDIO
    TITLE "0:"
    INDEX 01 00:59:14
  TRACK 45 AUDIO
    TITLE "4:cjc005_1499"
    INDEX 01 00:59:34
  TRACK 46 AUDIO
    TITLE "0:"
    INDEX 01 01:00:35
  TRACK 47 AUDIO
    TITLE "5:cjc005_1500"
    INDEX 01 01:00:60
  TRACK 48 AUDIO
    TITLE "0:"
    INDEX 01 01:06:61
  TRACK 49 AUDIO
    TITLE "3:cjc005_1501"
    INDEX 01 01:07:41
  TRACK 50 AUDIO
    TITLE "0:"
    INDEX 01 01:08:64
  TRACK 51 AUDIO
    TITLE "4:cjc005_1502"
    INDEX 01 01:09:09
  TRACK 52 AUDIO
    TITLE "0:"
    INDEX 01 01:10:26
  TRACK 53 AUDIO
    TITLE "5:cjc005_1503"
    INDEX 01 01:10:49
  TRACK 54 AUDIO
    TITLE "0:"
    INDEX 01 01:16:12
  TRACK 55 AUDIO
    TITLE "3:cjc005_1504"
    INDEX 01 01:16:58
  TRACK 56 AUDIO
    TITLE "0:"
    INDEX 01 01:18:13
  TRACK 57 AUDIO
    TITLE "4:cjc005_1505"
    INDEX 01 01:18:43
  TRACK 58 AUDIO
    TITLE "0:"
    INDEX 01 01:20:22
  TRACK 59 AUDIO
    TITLE "5:cjc005_1506"
    INDEX 01 01:20:51
  TRACK 60 AUDIO
    TITLE "0:"
    INDEX 01 01:26:07
